<svg width="802" height="399" viewBox="0 0 802 399" fill="none" xmlns="http://www.w3.org/2000/svg">
<path d="M278.91 186.679L279.486 185.502L281.631 184.521L283.371 182.14L285.935 180.793L286.981 181.041L287.125 183.003L288.054 183.082L287.962 184.717L290.369 185.07L291.834 186.47L293.142 186.548L295.039 185.109L298.191 185.96L301.906 185.476L303.044 183.343L305.176 181.63L305.791 176.882L302.586 174.109L301.919 172.866L301.749 170.982L302.926 168.863L301.828 164.023L302.429 163.382L303.319 163.919L304.797 163.762L306.563 161.525L307.596 157.771L310.016 156.698L310.801 156.738L311.939 157.902L313.666 158.006L314.568 157.588L317.328 158.111L323.764 157.104L325.203 157.666L326.942 156.711L328.787 157.392L331.364 154.893L336.164 153.546L338.833 154.775L339.657 156.829L339.748 159.746L337.642 161.525L337.917 162.323L346.969 160.884L349.69 154.985L356.321 147.333H365.138L367.296 146.783L372.057 144.233L376.099 144.769L378.074 143.408L379.919 144.494L381.959 144.56L384.89 145.658L385.923 147.019L389.52 149.622L391.456 150.341L395.537 153.65H399.514L405.766 151.361L407.754 153.716L410.135 152.264L411.731 152.212L414.739 150.315L417.826 150.433L418.624 151.545L420.102 152.12L426.342 151.257L436.95 151.741L440.273 149.87L442.771 152.46L449.678 153.101L451.274 155.103L462.955 156.803L465.492 155.063L467.493 151.675L470.371 154.37L472.386 154.095L474.099 154.618L477.749 158.647L479.685 159.262L477.853 160.099L476.428 165.253L470.633 170.577L470.908 175.377L469.743 176.515L470.842 177.379L471.64 180.806L468.409 182.899L468.239 184.168L468.605 186.928L469.717 187.268L469.312 189.884L469.94 191.401L472.647 191.022L478.39 195.927L479.789 198.936L481.477 200.492L483.413 204.9L485.139 206.313L483.805 208.851L484.302 213.272L484.995 214.515L484.25 215.286L484.302 216.32L486.918 217.602L489.914 216.961L490.777 218.897L492.543 219.184L491.758 223.396L488.749 229.322L488.763 231.729L487.638 233.848L485.846 235.404L485.139 239.211L486.369 241.094L486.094 243.619L486.761 244.639L487.193 244.011L488.2 244.6L488.946 244.325L488.959 245.816L489.678 246.497L489.312 247.255L494.047 247.124L496.873 246.222L498.141 245.293L500.051 242.206L501.647 241.722L502.497 244.417L504.538 244.391L506.814 243.2L508.043 244.181L508.069 245.11L508.907 246.928L507.716 248.171L505.937 248.694L504.852 251.127L501.477 254.358L501.058 256.189L501.765 257.615L501.582 259.708L499.554 262.455L500.666 264.914L500.496 265.712L497.448 268.616L496.859 270.186L494.596 272.867L495.368 274.005L494.23 275.889L490.267 279.721L489.731 280.807L489.979 282.233L489.56 281.788L489.011 282.141L488.632 285.32L486.042 285.215L486.722 286.955L483.046 287.583L479.475 284.797L476.728 283.672L474.819 284.339L475.957 285.529L474.976 287.478L473.354 288.041L471.418 287.753L472.032 289.754L467.834 290.343L466.879 289.65L464.76 289.846L463.425 288.982L461.987 289.323L461.712 290.225L462.654 291.455L461.686 295.261L457.408 298.597L455.368 301.278L454.047 301.082L452.909 302.259L452.634 302.9L454.073 303.607L454.007 304.051L451.548 305.281L450.541 306.994L449.848 307.204L448.919 305.869L447.506 305.281L443.778 306.327L442.235 307.125L441.738 308.224L439.946 307.648L438.389 310.186L436.571 310.5L434.543 314.463L430.554 315.235L429.324 316.033L429.743 313.652L431.273 311.442L429.259 307.596L427.65 307.871L426.473 306.824L423.883 306.68L423.216 304.954L421.554 308.25H420.325L418.52 306.667L416.558 308.355L416.427 309.663L414.726 309.977L413.183 307.792L413.981 307.099L414.216 305.843L416.322 303.816L415.38 301.566L413.889 301.906L412.856 300.127L410.645 298.976L410.017 297.603L407.99 297.079L406.525 297.262L404.929 299.852L402.378 300.193L400.782 299.565L398.676 297.603L397.29 292.161L395.89 291.703L394.216 292.396L391.875 290.029L388.67 292.514L387.793 294.123L386.642 294.607L384.68 296.844L382.823 297.367L380.194 299.211L379.095 298.597L377.107 299.918L377.381 302.612L374.464 306.249L375.144 310.67L372.698 313.116L373.13 316.53L371.469 319.748L371.992 321.396L370.632 322.56L369.258 322.469L369.062 324.823L368.212 324.98L367.087 323.411L367.034 321.331L365.452 321.135L362.561 324.012L359.33 324.928L357.316 323.084L355.667 323.437L355.524 324.117L353.522 323.45L351.22 324.038L349.794 323.345L345.7 323.908L343.28 325.307L342.208 326.785L339.029 327.662L338.309 330.16L337.25 330.997L335.366 330.304L334.111 329.022L332.672 328.878L329.755 329.938L322.233 326.968L321.2 327.06L320.245 328.682L318.348 328.826L315.824 327.165L314.948 327.309L314.516 328.211L311.808 329.977L310.082 328.211L308.368 328.721L305.569 326.21L305.543 322.874L306.968 322.207L307.465 320.075L310.356 318.008L312.75 314.32L312.214 311.193L310.422 308.459L311.468 307.753L311.861 305.163L313.26 303.907L312.266 302.861L313.496 301.501L310.395 299.368L308.303 301.906L306.576 302.469L305.072 301.906L304.666 302.521L299.473 304.287L298.204 303.109L296.504 305.909L295.248 303.842L294.045 303.489L293.208 305.83L294.241 308.891L288.42 308.564L283.96 307.334L282.704 306.053L279.643 305.072L278.845 305.529L279.002 307.23L278.544 307.557L276.268 307.125L275.536 303.07L276.87 301.317L277.877 301.54L280.062 298.976L277.288 294.738L277.38 293.691L278.505 293.626L278.57 293.077L276.713 290.801L277.616 288.289L279.159 286.994L281.409 286.249L281.33 282.089L282.795 278.165L281.945 275.274L280.232 275.065L279.277 273.456L279.028 270.081L277.105 264.809L274.045 263.174L273.351 263.449L272.122 260.545L269.44 258.06L269.689 256.634L268.119 255.248L266.092 255.313L264.064 258.308L261.631 259.983L261.971 260.741L260.925 262.023L260.022 262.141L260.205 263.881L258.832 264.391L258.936 267.177L257.982 268.158L255.261 269.963L254.829 268.864L252.422 268.328L251.48 269.518L247.896 271.324L244.129 270.002L241.945 273.416L240.009 275.169L239.342 276.831L238.661 276.307L238.818 275.169L237.628 273.861L237.432 272.409L236.032 270.173L235.849 261.749L236.255 260.114L237.602 258.936L237.694 257.367L239.97 251.807L238.897 250.434L238.648 247.713L236.739 247.608L239.97 242.729L238.348 242.926L239.302 238.033L238.334 236.268L237.903 236.621L236.438 235.901L234.436 235.888L233.233 236.372L232.932 237.772L231.389 237.523L231.964 234.776L233.913 232.906L233.769 231.598L232.736 230.211L232.474 227.582L233.128 222.808L235.339 222.716L239.329 223.789L244.299 223.736L245.712 222.494L247.295 222.324L247.909 220.806L247.739 218.57L248.773 216.804L250.591 215.587L253.168 210.486L255.339 208.262L257.982 209.622L259.944 210.093L261.356 209.753L264.129 211.035L264.365 209.309L263.724 206.509L267.465 203.475L268.891 197.235L270.473 195.94L272.723 196.686L274.594 195.417L276.517 192.395L278.086 188.393L278.924 187.752L278.91 186.679Z" fill="#CCCCCC" stroke="white" stroke-width="0.5"/>
<path d="M16.7752 230.564L20.6732 230.591L20.9479 228.341L25.2514 227.857L29.6858 226.025L30.0782 226.745L32.0141 226.902V226.091L30.536 224.364L30.6799 223.527L35.8467 226.64L38.5413 225.123L39.47 226.967L40.7258 227.307L50.3662 225.136L53.7933 223.292L57.0242 222.716L57.7044 220.348L60.9222 218.321L69.8563 205.11L71.8314 206.862L73.7805 207.686L75.5594 211.205L75.8472 213.494L75.337 214.619L73.1003 215.967L71.3998 218.661L68.7183 218.87L67.7503 222.337L62.5965 225.882L62.1649 227.203L66.56 230.329L67.1486 232.919L69.9871 233.364L70.0786 235.208L72.6163 236.411L72.3285 237.353L71.269 238.033L71.3867 239.368L70.6411 241.016L68.1427 241.879L68.1035 242.782L66.6908 244.639L66.9131 245.568L68.8752 247.857L72.5509 248.027L74.8269 250.499L79.1697 250.539L78.4764 254.554L80.7001 254.868L80.6347 256.608L82.5183 257.445L84.3627 263.92L85.1213 264.888L87.3712 264.012L89.8304 266.34L90.6413 269.518L88.6008 274.751L86.9788 275.47L88.4307 276.948L87.659 279.054L89.1109 279.198L89.8565 280.872L92.1718 282.73L92.7735 282.978L94.2516 281.814L96.0044 283.816L91.4523 289.545L90.1704 294.437L90.9684 295.274L92.7735 295.444L96.6846 297.289V298.688L95.0233 301.069L95.2457 302.011L96.8154 302.73L96.9462 306.092L96.4622 306.85L94.474 307.06L94.0292 308.159L91.714 308.25L90.2228 309.768L89.2025 312.07L85.3568 313.443L82.8584 311.756L80.687 311.651L80.8047 308.643L78.254 307.805L76.5666 309.31L77.1683 311.56L78.5941 312.357L77.1422 314.869L75.6641 314.49L71.8968 317.446L71.0466 317.158L68.9145 318.427L67.2925 317.433L66.4815 317.577L66.2329 318.558L66.887 319.343L66.4422 321.448L67.4887 323.437L68.9537 324.535H70.2095L71.6352 322.822L73.1003 323.594L73.1918 324.64L71.2559 325.033L70.615 329.022L67.9073 329.415L66.573 328.054L65.8798 328.329L66.0367 330.343L66.9262 332.018L63.3945 333.81L61.38 336.53L60.0981 336.583L60.242 337.956L58.7247 339.552L58.0968 337.616L55.7423 338.846L52.3021 338.139L46.7298 340.808L43.9305 337.825L41.9161 337.76L39.9671 335.811L37.0371 337.904L34.0024 335.68L36.4223 332.829L35.9514 331.73L33.8846 330.827L36.3045 328.617L34.4994 327.518L35.3497 325.948L34.591 324.889L37.194 323.123L36.5662 322.103L37.1548 321.475L34.918 320.01L34.3424 319.238L34.7741 318.309L33.7669 318.113L32.7989 316.87L33.6361 316.321L31.9618 312.384L29.6988 313.051L28.0507 312.815L23.4594 308.263L20.6863 306.393L20.7517 302.966L18.855 295.68L16.8798 292.789L18.2533 287.02L16.8668 285.738L13.6489 285.281L11.556 282.037L12.1316 281.134L11.4383 281.474L9.67244 277.524L11.0328 277.288L10.3003 276.307L11.4645 274.018L6.41537 271.507L6.49385 269.296L3.61612 269.44L2.29498 268.407L2.08569 264.666L1 262.455L1.32701 261.971L3.38067 261.997L3.40683 260.336L4.47944 258.217L3.64228 257.746L3.45915 256.085L5.05499 254.41L3.72076 251.847L3.34143 248.276L5.14655 247.255L4.64949 246.261L5.19887 244.809L6.36305 244.325L7.0694 242.939L9.72476 240.715L9.03149 239.394L9.48931 238.426L10.8235 237.863L11.8961 238.57L12.6941 238.347L12.0139 234.933L13.2565 234.672L13.0865 233.324L14.473 232.474L14.787 233.063L16.2389 233.011L15.925 231.572L16.7752 230.564Z" fill="#CCCCCC" stroke="white" stroke-width="0.5"/>
<path d="M479.685 159.262L482.013 161.146L483.962 160.609L484.276 158.621L483.569 157.823L483.53 156.424L484.524 154.933L484.577 149.556L486.421 148.418L486.63 147.699L486.5 146.469L485.048 145.384L484.734 144.22L489.43 139.34L491.065 138.765L491.941 137.47L493.903 136.24L496.441 135.586L498.534 132.931L503.217 134.867L507.337 137.797L508.88 139.576L511.34 140.531L512.465 141.76L514.649 141.826L510.136 136.07L510.764 134.291L513.969 131.217L514.832 131.767L516.349 134.828L518.952 137.025L519.293 138.451L522.524 140.191L524.172 139.21L527.324 138.974L532.072 146.522L533.315 146.783L536.101 148.902L535.643 147.712L536.049 144.599L537.632 143.238L537.605 141.25L538.22 140.701L542.498 139.262L543.531 139.654L544.774 142.113L547.625 139.955L548.345 140.335L548.986 142.1L549.967 142.179L551.432 141.146L551.68 140.766L550.163 138.516L550.32 136.79L548.972 135.076L549.679 134.501L551.248 135.482L552.857 135.612L555.801 137.81L559.62 136.345L559.358 137.457L556.939 139.066L557.933 140.151L559.986 140.125L560.366 141.054L567.939 138.66L571.026 139.484L573.315 141.159L574.937 144.573L575.618 144.874L579.62 141.865L582.773 147.123L584.826 148.327L585.402 152.016L591.275 152.356L595.225 153.965L599.176 154.239L600.994 152.46L602.197 153.52L604.369 154.174L605.611 157.392L607.704 159.341L610.307 156.594L613.8 158.647L614.179 157.418L615.932 157.483L615.854 159.851L618.705 158.621L619.411 160.923L617.279 168.209L618.954 170.276L622.158 172.186L624.761 171.022L624.631 168.628L626.54 166.914L627.652 166.457L628.96 167.281L630.19 166.182L634.219 166.195L634.663 164.638L635.932 163.369L635.788 160.23L636.207 159.72L635.265 157.457L635.867 156.777L638.078 156.214L640.798 158.713L641.217 154.095L642.015 155.273L642.76 158.817L645.664 159.341L646.449 158.961V157.967L648.071 157.719L650.504 155.848L650.596 159.655L652.27 160.086L653.068 160.989L651.721 162.519L651.93 164.377L653.539 166.43L655.592 167.451L656.757 169.779L656.469 172.12L658.169 175.037L663.127 176.332L664.108 177.274L663.977 178.543L666.528 178.465L669.484 180.23L675.004 178.53L676.469 180.741L678.719 182.533L681.897 182.036L687.404 179.014L688.686 179.145L688.699 180.126L689.445 176.882L691.996 176.071L694.703 173.795L694.965 171.532L693.5 169.334L692.597 156.293L693.081 153.376L694.52 152.356L696.783 152.63L698.209 155.26L699.033 154.919L699.831 155.495L700.851 154.776L703.284 154.475L710.348 157.222L714.063 159.759L716.496 163.854L721.296 164.364L722.277 166.195L726.908 166.221L732.703 164.887L740.773 165.031L741.362 163.958L740.97 156.842L742.029 155.678L744.619 154.645L745.862 151.806L749.904 147.699L754.351 148.261L755.855 149.321L757.229 154.985L758.576 156.934L758.916 160.06L765.626 159.825L768.504 158.66L770.676 159.825L775.254 160.047L776.209 160.714L774.992 166.967L776.209 169.609L776.575 174.344L775.476 175.521L774.691 177.758L771.107 181.355L770.479 184.756L772.952 186.718L773.004 189.426L771.565 191.048L769.969 198.818L764.894 200.453L761.506 203.828L757.647 206.614L756.692 209.936L754.73 211.899L752.546 211.964L750.597 214.488H749.014L748.909 215.77L748.033 215.927L745.312 222.023L744.318 233.495L741.754 251.441L742.055 256.464L742.683 258.008L743.991 257.955L743.455 259.59L740.799 260.545L741.493 262.73H739.871L739.348 263.318L738.17 262.926L736.574 263.711L735.894 262.586L734.599 264.509L734.22 262.599L733.16 261.513L732.703 262.56L730.845 262.377L730.309 263.397L726.411 260.257L724.71 261.958L720.956 263.044L720.472 263.658L720.224 262.9L715.266 263.175L713.212 264.783L712.388 264.705L713.003 265.66L712.284 266.719L711.028 266.445L709.759 265.241L708.451 266.026L708.098 264.953L708.033 266.51L707.326 266.418L707.614 265.307L706.895 264.914L706.057 265.934L706.725 267.36L706.071 267.661L706.097 266.654L705.587 266.549L705.037 267.818L703.964 267.386L703.507 268.328L702.826 267.975L702.473 266.078L699.857 266.065L699.347 266.719L699.242 272.161L697.79 272.933L696.888 272.972L697.071 272.056L695.174 271.808L694.586 270.918L689.968 271.232L688.817 270.068L684.317 269.335L682.395 268.132L682.669 265.751L681.649 265.791L680.864 264.888L681.662 263.488L681.06 262.35L678.222 260.676L676.639 261.016L675.37 259.381L675.187 255.117L674.795 255.287L672.571 248.89L671.511 248.38L670.635 246.745L670.962 245.973L669.667 244.221L670.06 243.174L669.51 242.886L669.72 239.185L669.275 238.034L668.595 238.151L668.333 235.483L667.169 235.954L665.508 234.646L664.474 235.156L663.598 236.817L661.832 236.555L661.099 235.208L660.092 235.954L658.523 235.967L658.195 234.646L656.233 232.906L654.716 229.348L654.755 227.137L653.591 226.719L653.513 225.999H652.702L652.505 224.914L650.779 225.241L649.955 223.907L649.052 224.05L647.273 222.193L645.586 221.801L644.108 219.564L642.721 219.773L641.832 220.885L641.518 224.43L640.759 225.162L638.562 224.155L635.527 225.241L631.498 224.861L627.77 225.411L627.587 224.704L626.959 225.725L628.372 226.156L626.71 226.758L627.692 227.752L627.09 229.348L626.135 229.204L626.92 230.735L625.245 231.833L625.442 232.775L624.173 232.958L620.693 231.703L620.066 232.187L616.181 229.309L615.278 229.387L615.2 230.381L613.578 229.688L612.989 230.839L611.89 230.525L611.916 231.833L610.046 232.566L609.588 232.16L609.444 232.814L608.816 232.396L607.783 233.717L606.789 232.801L603.662 234.162L601.177 238.91L599.634 239.315L598.103 239.119L596.73 237.942L596.612 235.339L595.84 233.979L593.355 233.168L591.903 232.043L590.124 232.984L590.111 231.912L589.038 232.252L587.521 231.873L586.54 230.931L586.03 231.428L584.761 230.8L581.805 232.043L580.235 233.926L579.228 232.736L578.038 233.338L576.86 232.841L576.69 230.591L574.715 230.185L574.519 228.759L573.59 229.557L572.701 226.653L571.327 225.437L566.003 226.863L564.12 226.745L562.118 224.05L561.478 224.168V221.317L560.274 221.644L561.19 220.009L555.617 221.905L546.003 222.978L545.388 223.854L544.617 223.017L542.406 222.978L538.351 224.914L534.675 225.018L533.263 226.693L532.753 226.156L531.824 227.072L529.993 227.438L529.064 228.694L527.062 228.681L525.454 229.492L525.009 230.421L519.685 228.354L518.285 231.807L516.781 231.245L515.839 229.911L514.309 230.46L513.315 231.663L513.446 233.612L514.518 234.829L513.969 236.202L514.139 239.878L512.36 240.257L510.869 243.318L508.069 245.11L508.043 244.181L506.814 243.2L504.538 244.391L502.497 244.417L501.647 241.722L500.051 242.206L498.141 245.293L496.872 246.222L494.047 247.125L489.312 247.255L489.678 246.497L488.959 245.817L488.946 244.325L488.2 244.6L487.193 244.011L486.761 244.639L486.094 243.619L486.369 241.094L485.139 239.211L485.845 235.404L487.638 233.848L488.762 231.729L488.749 229.322L491.758 223.396L492.543 219.184L490.777 218.897L489.914 216.961L486.918 217.602L484.302 216.32L484.132 215.587L484.995 214.515L484.302 213.272L483.805 208.851L485.139 206.313L483.412 204.9L481.477 200.492L479.789 198.936L478.39 195.927L472.647 191.022L469.939 191.401L469.312 189.884L469.717 187.268L468.605 186.928L468.239 184.168L468.409 182.899L471.64 180.806L470.842 177.379L469.743 176.516L470.907 175.378L470.633 170.577L476.427 165.253L477.853 160.099L479.685 159.262Z" fill="#CCCCCC" stroke="white" stroke-width="0.5"/>
<path d="M160.426 213.01L162.362 212.317L163.056 211.074L164.115 211.284L165.619 209.936L166.051 208.419L165.986 205.097L165.031 204.338L163.919 200.414L162.912 199.485L162.245 194.933L164.115 193.01L165.855 192.84L167.424 194.737L173.926 194.593L176.45 196.045L178.36 195.378L183.003 199.616L184.796 205.267L186.967 207.373L188.824 206.352L190.917 207.477L192.343 207.111L194.004 208.001L195.888 213.285L197.392 215.522L196.987 217.981L193.821 221.042L195.966 222.808L194.868 224.063L194.828 225.437L195.299 226.104L199.407 226.052L200.937 227.268L203.553 231.703L205.581 233.887L206.274 237.314L207.137 238.518L211.284 239.773L212.435 239.08L212.788 237.458L213.207 239.158L214.999 240.82L215.587 238.779L218.151 237.314L222.389 233.011L226.13 231.258L229.924 227.713L232.474 227.582L232.736 230.211L233.769 231.598L233.913 232.906L231.964 234.776L231.389 237.523L232.932 237.772L233.233 236.372L234.436 235.888L236.438 235.901L237.903 236.621L238.334 236.268L239.302 238.034L238.347 242.926L239.969 242.73L236.739 247.609L238.648 247.713L238.897 250.434L239.969 251.807L237.693 257.367L237.602 258.936L236.255 260.114L235.849 261.749L236.032 270.173L237.432 272.409L237.628 273.861L238.818 275.169L238.661 276.307L239.342 276.831L240.009 275.169L241.945 273.417L244.129 270.003L247.896 271.324L251.48 269.519L252.422 268.328L254.829 268.865L255.261 269.963L257.981 268.158L258.936 267.177L258.832 264.391L260.205 263.881L260.022 262.141L260.925 262.023L261.971 260.741L261.631 259.983L264.064 258.308L266.091 255.313L268.119 255.248L269.689 256.634L269.44 258.06L272.122 260.545L273.351 263.449L274.044 263.174L277.105 264.81L279.028 270.081L279.277 273.456L280.232 275.065L281.945 275.274L282.795 278.165L281.33 282.089L281.409 286.249L279.159 286.994L277.615 288.289L276.713 290.801L278.57 293.077L278.505 293.626L277.38 293.691L277.288 294.738L280.062 298.976L277.877 301.54L276.87 301.317L275.536 303.07L276.268 307.125L278.544 307.557L279.002 307.23L278.845 305.529L279.643 305.072L282.704 306.053L283.96 307.335L288.42 308.564L294.241 308.891L293.208 305.83L294.045 303.489L295.248 303.842L296.504 305.909L298.204 303.11L299.473 304.287L304.666 302.521L305.072 301.906L306.576 302.469L308.303 301.906L310.395 299.368L313.496 301.501L312.266 302.861L313.26 303.907L311.86 305.163L311.468 307.753L310.422 308.46L312.214 311.193L312.75 314.32L310.356 318.008L307.465 320.075L306.968 322.207L305.543 322.874L305.569 326.21L304.889 326.471L304.653 327.623L303.319 327.767L301.095 330.54L294.659 329.833L290.578 331.285L288.328 330.644L287.844 329.872L287.007 331.246L287.204 331.887L284.614 331.848L283.253 332.502L281.736 331.494L279.996 332.475L278.78 334.385L279.447 334.738L279.617 335.824L278.008 337.642L278.583 340.638L277.916 343.646L277.563 342.966L276.922 343.908L277.55 344.104L275.915 345.399L273.377 344.902L272.266 345.478L271.912 344.863L271.154 345.504L271.729 345.935L270.487 346.485L269.78 347.714L270.356 348.931L271.808 349.807L272.527 352.096L271.271 352.28L272.187 356.374L269.898 359.055L270.984 361.24L270.369 361.671L270.853 362.26L270.186 363.607L270.709 366.289L270.225 366.55L270.513 369.402L274.515 370.331L275.536 371.783L278.74 373.3L279.918 376.452L282.652 378.048L282.377 380.115L274.672 378.977L266.994 381.096L265.267 386.171L259.146 390.488L256.673 391.534L250.068 392.555L243.161 390.893L239.446 391.063L236.228 393.026L233.168 393.627L232.213 393.51L230.054 391.809L227.02 391.063L221.997 393.483L218.269 393.967L211.231 396.714L204.573 397.957L195.509 395.746L188.013 395.903L183.291 394.36L174.318 392.725L168.131 392.699L164.364 394.818L160.021 392.476L156.437 395.184L151.741 395.406L149.648 396.243L144.233 394.857L142.349 395.72L137.378 395.55L134.043 396.283L131.034 394.36L123.578 392.672L121.276 390.004L123.761 387.649L125.135 381.488L127.659 381.423L128.183 382.3L129.792 382.313L130.668 383.045L131.806 380.56L135.586 378.074L136.162 376.387L135.547 372.411L137.064 369.35L140.138 368.316L142.558 364.68L146.535 362.378L148.353 360.154L145.109 356.936L146.652 354.255L145.802 349.075L146.796 343.882L145.135 340.782L145.475 337.995L144.913 336.674L146.966 335.092L146.312 333.77L146.417 331.874L145.305 330.618L143.474 330.474L141.146 328.957L142.65 326.955L141.708 325.347L138.124 328.08L136.633 327.806L136.031 324.954L137.692 320.847L137.496 318.048L133.637 313.587L128.444 310.356L131.767 307.936L133.624 307.871L134.749 309.519L135.874 309.558L137.758 307.23L135.285 302.338L137.941 302.678L139.602 302.233L141.146 303.633L141.76 302.233L144.847 300.834L146.273 299.29L146.639 296.936L146.155 295.209L142.375 294.005L140.792 291.415L141.25 289.99L142.545 290.761L144.167 289.715L144.036 288.289L143.252 287.517L145.423 284.025L144.625 282.194L141.603 281.88L140.635 279.931L142.558 278.374L142.938 272.933L144.468 271.742L143.866 268.995L145.998 267.347L145.41 266.458L146.757 265.751L147.28 263.985L150.694 258.792L152.944 253.586L152.866 252.514L154.344 250.146L156.424 250.107L156.018 248.838L157.679 246.353L157.182 244.966L153.834 242.612L149.792 237.615L148.51 236.621L143.971 235.614L143.435 234.685L142.427 234.724L142.297 233.364L144.717 231.454L146.012 224.652L148.549 221.604L149.373 218.347L152.173 219.328L153.154 220.401L157.052 220.087L156.685 218.661L158.425 218.517L160.178 216.908L160.426 213.01Z" fill="#CCCCCC" stroke="white" stroke-width="0.5"/>
<path d="M625.586 36.5269L629.523 35.8859L631.223 36.1606L631.917 37.2594L633.983 38.2666L634.781 40.0586L636.456 39.5485L639.111 39.8232L639.686 41.2359L643.441 44.2706L645.324 44.2314L646.881 43.4465L649.261 43.8259L651.027 40.7912L651.734 40.5295L655.422 43.0149L655.919 42.4785L655.331 41.3274L657.005 39.3261L659.87 39.7447L661.832 38.005L663.088 39.143L665.259 39.6532L665.965 39.0514L666.986 39.2869L668.621 37.4032L671.119 36.5923L672.715 40.2156L674.795 41.8114L674.834 43.1849L678.039 44.4668L680.563 42.7794L683.611 44.1921L684.265 47.1483L685.508 47.096L686.554 48.6395L689.419 50.3793L690.047 54.1988L691.302 56.1085L693.042 56.6187L692.859 53.6494L694.076 51.4911L696.234 50.6801L698.065 48.9403L700.237 48.7965L701.218 49.9476L701.231 51.5042L702.774 53.5186L703.585 53.5839L704.619 52.6814L706.188 53.1523L707.601 56.1085L708.948 57.5343L709.458 56.8934L710.963 56.828L712.859 58.4107L716.221 57.6651L717.202 58.0052L720.355 65.9974L722.591 68.7706L727.039 72.4723L726.908 76.0303L728.504 77.6261L727.183 84.0094L729.341 85.7754L737.202 88.5876L742.578 89.5295L742.827 91.1907L747.601 93.3882L749.027 94.7878L750.244 94.3823L751.905 92.6427L753.828 92.9566L754.835 93.9245L755.293 95.6904L754.102 98.0449L754.129 99.4315L757.268 99.6277L767.039 103.133L769.184 100.923L773.88 101.25L775.502 104.036L776.876 104.716L777.137 106.56L781.533 110.864L782.33 111.034L784.593 109.909L786.372 109.961L791.461 113.585L792.259 113.729L794.103 112.355L798.249 111.78L801.533 113.663L799.767 115.494L799.466 125.985L797.622 127.542L798.76 130.603L795.306 132.695L792.599 132.068L789.368 133.637L788.727 137.012L787.615 137.836L781.807 146.993L782.71 148.798L781.807 150.367L781.245 156.267L777.909 158.176L776.209 160.714L775.254 160.047L770.676 159.825L768.504 158.66L765.626 159.825L758.916 160.06L758.576 156.934L757.229 154.985L755.855 149.321L754.351 148.261L749.904 147.699L745.862 151.806L744.619 154.645L742.029 155.678L740.97 156.842L741.362 163.958L740.773 165.031L732.703 164.887L726.908 166.221L722.277 166.195L721.296 164.364L716.496 163.853L714.063 159.759L710.348 157.222L703.284 154.475L700.851 154.776L699.831 155.495L699.033 154.919L698.209 155.259L696.783 152.63L694.52 152.356L693.082 153.376L692.597 156.293L693.5 169.334L694.965 171.532L694.703 173.795L691.996 176.071L689.445 176.882L688.699 180.126L688.686 179.145L687.405 179.014L681.898 182.035L678.719 182.533L676.469 180.74L675.004 178.53L669.484 180.23L666.528 178.464L663.977 178.543L664.108 177.274L663.127 176.332L658.169 175.037L656.469 172.12L656.757 169.779L655.592 167.451L653.539 166.43L651.93 164.377L651.721 162.519L653.068 160.989L652.27 160.086L650.596 159.655L650.504 155.848L648.071 157.719L646.449 157.967V158.961L645.664 159.341L642.76 158.817L642.015 155.273L641.217 154.095L640.798 158.713L638.078 156.214L635.867 156.777L635.265 157.457L636.207 159.72L635.788 160.23L635.932 163.369L634.664 164.638L634.219 166.195L630.19 166.182L628.96 167.281L627.652 166.456L626.54 166.914L624.631 168.628L624.761 171.022L622.158 172.186L618.954 170.276L617.279 168.209L619.412 160.923L618.705 158.621L615.854 159.851L615.932 157.483L614.179 157.418L613.8 158.647L610.307 156.594L607.704 159.341L605.612 157.392L604.369 154.174L602.197 153.52L600.994 152.46L599.176 154.239L595.226 153.964L591.275 152.356L585.402 152.015L584.826 148.327L582.773 147.123L579.62 141.865L575.618 144.873L574.937 144.573L573.316 141.159L571.026 139.484L567.939 138.66L560.366 141.054L559.986 140.125L557.933 140.151L556.939 139.066L559.358 137.457L559.62 136.345L555.801 137.81L552.857 135.612L551.249 135.482L549.679 134.501L548.973 135.076L550.32 136.79L550.163 138.516L551.68 140.766L551.432 141.145L549.967 142.179L548.986 142.1L548.345 140.334L547.625 139.955L544.774 142.113L543.531 139.654L542.498 139.262L538.22 140.701L537.605 141.25L537.632 143.238L536.049 144.599L535.643 147.712L536.101 148.902L533.315 146.783L532.072 146.522L527.324 138.974L524.172 139.21L522.524 140.191L519.293 138.451L518.953 137.025L516.35 134.828L514.832 131.767L513.969 131.217L510.764 134.291L510.136 136.07L514.649 141.826L512.465 141.76L511.34 140.531L508.88 139.576L507.337 137.797L503.217 134.867L498.534 132.931L496.441 135.586L493.903 136.24L491.941 137.47L491.065 138.765L489.43 139.34L484.734 144.219L485.048 145.384L486.5 146.469L486.63 147.699L486.421 148.418L484.577 149.556L484.524 154.932L483.53 156.424L483.57 157.823L484.276 158.621L483.962 160.609L482.013 161.146L479.685 159.262L477.749 158.647L474.099 154.618L472.386 154.095L470.371 154.37L467.493 151.675L465.492 155.063L462.955 156.803L451.274 155.103L449.678 153.101L442.771 152.46L443.334 151.034L447.624 150.197L450.62 147.594L450.07 147.058L447.703 146.862L445.597 140.871L446.277 139.105L444.38 137.849L442.876 134.252L438.101 130.838L438.533 129.687L440.953 130.511L445.23 128.64L445.217 124.612L446.63 121.014L446.394 117.457L448.291 112.355L448.474 109.438L446.63 108.313L444.877 109.399L441.424 108.797L439.88 109.111L438.585 106.587L438.389 108.091L437.617 108.496L435.446 105.069L433.222 105.226L432.83 103.696L429.861 104.925L429.023 104.624L430.253 101.603L429.887 100.897L430.384 99.3268L426.159 92.8257L425.348 90.1442L425.845 88.9931L429.35 86.377L429.651 83.0022L432.437 81.7727L435.524 82.0473L441.11 82.7668L444.275 85.5398L444.131 86.7956L445.976 88.9931L448.487 90.0004L452.961 93.6367L455.185 93.6891L455.342 88.1429L456.349 85.6314L457.408 84.7288L456.584 81.6157L457.709 80.1899L458.023 77.6261L460.757 73.7281L461.241 69.1106L463.87 64.8464L464.55 64.8725L465.701 67.2401L467.768 65.2257L466.839 63.2636L467.193 62.4264L468.919 62.3088L470.24 59.4179L472.739 58.6461L474.191 57.0634L475.551 58.4631L477.108 57.3643L480.731 58.1622L481.437 57.2596L482.497 57.1288L484.472 57.3643L486.146 58.7377H487.219L488.161 57.6259L488.396 51.5042L489.482 48.9403L487.271 49.0842L488.252 46.4551L490.018 46.0103L493.733 47.096L495.316 45.1077L496.258 46.2065L496.323 48.4695L497.88 48.7442L500.444 47.7631L500.757 45.971L501.451 45.304L502.916 46.1542L503.517 47.5538L504.041 45.3955L503.02 45.0946L503.308 43.1457L505.48 44.3229L505.99 44.1267L505.44 43.5904L508.92 43.4858L512.111 45.644L513.616 46.0103L514.296 48.391L515.944 48.4695L519.75 50.0392L521.111 51.3341L523.505 51.8704L524.276 50.4969L525.663 50.7324L527.063 49.3327L527.403 47.5276L528.802 45.6833L529.325 42.9494L533.707 46.612L535.8 45.8795L540.444 42.3739L542.785 42.7402L544.669 43.7997L546.605 43.3811L547.337 44.4275L546.997 46.115L548.986 47.0567L547.678 48.7703L549.365 50.3138L549.286 53.1131L552.779 52.3675L553.119 53.0739L552.583 54.9967L554.885 54.8004L556.324 55.873L555.814 56.828L554.859 55.546L555.251 56.5533L554.597 58.9078L556.808 58.1752L558.704 60.896L560.078 60.9614L562.576 58.2406L563.911 58.1099L566.605 62.1518L565.258 63.9307L566.932 63.9699L567.612 62.8843L569.431 62.4526L570.202 63.813L569.836 64.9118L570.556 66.4945L573.054 68.7313L577.606 66.3244L581.569 66.4291L582.354 65.3565L581.242 62.1779L583.885 60.8306L584.473 58.2799L585.35 58.0706L588.711 54.4342L589.47 54.2642L590.673 55.036L592.139 54.3557L593.211 55.5722L594.048 54.6566L595.827 54.3949L597.397 52.132L592.557 47.9331L592.57 46.5859L590.399 45.8141L589.601 43.3549L590.189 42.4131L591.877 42.3085L596.337 40.5688L598.613 41.8769L599.529 39.5223L600.314 39.3522L604.042 41.1705L604.63 42.6094L605.729 42.9233L607.874 44.977L608.044 46.442L609.719 46.5466L610.909 45.9187L611.903 46.3896L614.48 43.3157L614.022 41.4059L615.383 38.9729L616.455 39.5092L619.856 36.6969L620.693 34.0808L621.74 33.95L625.586 36.5269Z" fill="#CCCCCC" stroke="white" stroke-width="0.5"/>
<path d="M51.6873 159.301L58.4239 160.819L60.3075 162.258L62.832 162.323L63.8392 163.932L66.7954 166.182L68.9537 165.58L69.6993 167.424L73.5974 170.368L74.7484 172.055L76.7367 170.93L79.549 171.95L78.5157 176.385L73.5058 178.988L73.3357 180.283L75.5202 182.035L76.9329 181.355L77.6785 181.839L82.3744 178.164L83.0677 179.903L82.8061 180.767L85.5007 182.284L86.3117 181.708L87.1619 182.938L88.7447 183.043L90.3798 186.208L92.2111 186.823L92.7343 188.707L92.2895 190.943L90.3144 191.637L89.0194 195.456L89.8565 196.96L89.8042 199.145L91.0992 199.354L92.2765 203.893L96.8416 212.173L97.8095 211.101L99.2615 211.728L99.6278 210.237L100.883 209.727L102.689 207.556L105.2 208.681L111.126 207.503L111.453 207.268L110.197 205.097L110.668 203.213L111.688 203.174L111.714 204.037L112.46 204.613L114.867 204.796L114.71 203.645L117.404 201.957L118.006 202.166L119.929 200.348L120.936 200.558L121.982 199.132L125.056 201.539L127.83 205.764L133.611 208.55L135.966 208.157L136.489 208.89L137.274 208.275L138.909 208.406L139.197 205.41L141.342 205.62L141.93 205.79L141.669 207.791L142.624 209.688L143.225 209.727L143.565 208.511L143.435 209.779L143.853 209.819L144.56 208.445L146.051 210.473L146.77 210.067L151.087 211.663L155.744 212.003L157.85 213.861L160.426 213.01L160.178 216.908L158.425 218.517L156.685 218.661L157.052 220.087L153.154 220.401L152.173 219.328L149.373 218.347L148.549 221.604L146.012 224.652L144.717 231.454L142.297 233.364L142.427 234.724L143.435 234.685L143.971 235.614L148.51 236.621L149.792 237.615L153.834 242.612L157.182 244.966L157.679 246.353L156.018 248.838L156.424 250.107L154.344 250.146L152.866 252.514L152.944 253.586L150.694 258.792L147.28 263.985L146.757 265.751L145.41 266.458L145.998 267.347L143.866 268.995L144.468 271.742L142.938 272.932L142.558 278.374L140.635 279.931L141.603 281.88L144.625 282.194L145.423 284.025L143.252 287.517L144.036 288.289L144.167 289.715L142.545 290.761L141.25 289.99L140.792 291.415L142.375 294.005L146.155 295.209L146.639 296.935L146.273 299.29L144.847 300.833L141.76 302.233L141.146 303.633L139.602 302.233L137.941 302.678L135.285 302.338L137.758 307.23L135.874 309.558L134.749 309.519L133.624 307.871L131.767 307.936L128.444 310.356L133.637 313.587L137.496 318.047L137.692 320.847L136.031 324.954L136.633 327.806L138.124 328.08L141.708 325.346L142.65 326.955L141.146 328.957L143.474 330.474L145.305 330.618L146.417 331.874L146.312 333.77L146.966 335.092L144.913 336.674L145.475 337.995L145.135 340.782L146.796 343.882L145.802 349.075L146.653 354.255L145.109 356.936L148.353 360.154L146.535 362.378L142.558 364.68L140.138 368.316L137.064 369.35L135.547 372.41L136.162 376.387L135.586 378.074L131.806 380.56L130.668 383.045L129.792 382.312L128.183 382.299L127.659 381.423L125.135 381.488L123.761 387.649L121.276 390.004L119.602 388.081L112.852 383.542L109.216 379.147L104.441 380.56L103.055 380.023L100.648 375.851L99.9286 372.986L97.391 369.938L93.8723 369.624L89.9612 367.008L87.9337 366.328L83.8787 357.577L79.3267 352.371L77.0506 350.893L70.8243 343.489L69.3985 342.992L61.9295 343.175L59.5226 342.155L58.7247 339.552L60.2421 337.956L60.0982 336.583L61.3801 336.53L63.3945 333.81L66.9263 332.018L66.0368 330.343L65.8798 328.329L66.5731 328.054L67.9073 329.414L70.615 329.022L71.2559 325.033L73.1919 324.64L73.1003 323.594L71.6353 322.822L70.2095 324.535H68.9537L67.4887 323.437L66.4423 321.448L66.887 319.343L66.233 318.558L66.4815 317.577L67.2925 317.433L68.9145 318.427L71.0466 317.158L71.8969 317.446L75.6641 314.49L77.1422 314.869L78.5941 312.357L77.1684 311.56L76.5667 309.31L78.2541 307.805L80.8048 308.642L80.687 311.651L82.8584 311.756L85.3568 313.443L89.2025 312.07L90.2228 309.767L91.714 308.25L94.0293 308.159L94.474 307.06L96.4622 306.85L96.9462 306.092L96.8154 302.73L95.2458 302.011L95.0234 301.069L96.6846 298.688V297.289L92.7735 295.444L90.9684 295.274L90.1705 294.437L91.4524 289.545L96.0044 283.816L94.2516 281.814L92.7735 282.978L92.1718 282.73L89.8565 280.872L89.1109 279.198L87.659 279.054L88.4308 276.948L86.9788 275.47L88.6008 274.751L90.6414 269.518L89.8304 266.34L87.3712 264.011L85.1214 264.888L84.3627 263.92L82.5183 257.445L80.6347 256.608L80.7001 254.868L78.4764 254.554L79.1697 250.538L74.8269 250.499L72.5509 248.027L68.8753 247.857L66.9132 245.568L66.6908 244.639L68.1035 242.782L68.1427 241.879L70.6411 241.016L71.3867 239.368L71.269 238.033L72.3285 237.353L72.6163 236.411L70.0787 235.208L69.9871 233.364L67.1486 232.919L66.56 230.329L62.1649 227.203L62.5966 225.882L67.7503 222.337L68.7183 218.87L71.3998 218.661L73.1003 215.966L75.3371 214.619L75.8472 213.494L75.5594 211.205L73.7805 207.686L71.8315 206.862L69.8563 205.11L60.9223 218.321L57.7044 220.348L57.0242 222.716L53.7933 223.292L50.3662 225.136L40.7258 227.307L39.4701 226.967L38.5413 225.123L35.8467 226.64L30.6799 223.527L30.536 224.364L32.0141 226.091V226.902L30.0782 226.745L29.6858 226.025L25.2515 227.857L20.9479 228.341L20.6732 230.591L16.7752 230.564L17.1153 229.963L16.409 229.479L16.3174 228.55L17.5339 227.857L16.3959 226.523L16.4744 224.783L15.2317 222.886L15.2186 222.428L16.1604 222.337L15.4148 221.696L15.7157 220.008L15.0878 216.307L16.0166 215.417L16.082 212.723L18.0179 211.545L19.2998 208.092L20.2285 207.608L19.1951 206.902L20.6732 206.627L19.8753 205.751L19.9538 202.206L25.5392 196.62L23.9434 194.737L24.1788 193.455L26.0625 191.571L26.2456 189.491L29.8558 184.508L30.3921 181.931L36.7101 177.601L36.9978 175.39L38.9992 173.258L39.0515 169.687L39.6009 168.458L45.6964 165.305L50.6932 159.471L51.3865 158.922L51.6873 159.301Z" fill="#CCCCCC" stroke="white" stroke-width="0.5"/>
<path d="M209.348 64.9249L210.368 65.4481L213.56 64.6371L216.346 64.781L216.254 67.6195L217.34 69.2415L218.557 69.9086L221.277 75.0231L223.409 77.1814L223.279 79.4443L225.319 81.6027L225.659 83.1593L225.215 84.3888L226.117 85.6707L226.261 87.2273L228.642 88.954L229.047 91.9363L230.8 92.6819L235.247 96.9069L237.903 98.385L239.538 98.6466L239.669 100.792L243.92 102.244L244.273 105.88L246.157 107.672L245.045 110.079L242.756 111.557L241.526 113.428L245.908 114.919L247.962 118.176L247.491 119.34L247.923 120.53L246.941 122.1L247.595 123.735L247.386 127.162L245.803 128.065L245.372 129.792L242.847 132.826L241.958 133.467L237.733 134.095L234.803 135.992L234.737 137.404L233.259 139.759L231.663 139.929L229.178 141.381L228.354 141.224V142.715L230.198 144.73L237.026 145.357L238.962 143.579L241.814 142.898L242.219 141.119L243.75 138.765L245.555 138.176L245.293 139.576L246.379 140.989L248.681 140.91L251.48 139.811L257.445 141.669L260.624 140.936L263.318 143.605L263.724 144.874L262.638 147.228L261.853 146.979L261.84 148.353L260.428 150.707L262.651 153.86L260.82 157.562L261.5 158.412L261.095 164.481L264.156 166.077L265.686 167.908L267.02 167.738L268.459 168.759L268.681 170.407L269.506 170.263L270.63 171.597L272.37 171.872L272.239 176.241L276.582 180.806L277.341 183.147L278.636 183.527L278.91 186.679L278.924 187.752L278.086 188.393L276.517 192.395L274.594 195.417L272.723 196.686L270.473 195.94L268.891 197.235L267.465 203.475L263.724 206.509L264.365 209.309L264.129 211.035L261.356 209.753L259.944 210.093L257.981 209.622L255.339 208.262L253.168 210.486L250.591 215.587L248.773 216.804L247.739 218.57L247.909 220.806L247.295 222.324L245.712 222.494L244.299 223.736L239.329 223.789L235.339 222.716L233.128 222.808L232.474 227.582L229.924 227.713L226.13 231.258L222.389 233.011L218.151 237.314L215.587 238.779L214.999 240.82L213.207 239.158L212.788 237.458L212.435 239.08L211.284 239.773L207.137 238.517L206.274 237.314L205.581 233.887L203.553 231.703L200.937 227.268L199.407 226.052L195.299 226.104L194.828 225.437L194.868 224.063L195.966 222.808L193.821 221.042L196.987 217.981L197.392 215.522L195.888 213.285L194.004 208.001L192.343 207.111L190.917 207.477L188.824 206.352L186.967 207.373L184.796 205.267L183.003 199.616L178.36 195.378L176.45 196.045L173.926 194.593L167.425 194.737L165.855 192.84L164.115 193.01L162.245 194.933L162.912 199.485L163.919 200.414L165.031 204.338L165.986 205.097L166.051 208.419L165.619 209.936L164.115 211.284L163.056 211.074L162.362 212.317L160.426 213.01L157.85 213.861L155.744 212.003L151.087 211.663L146.77 210.067L146.051 210.473L144.56 208.445L143.853 209.819L143.435 209.779L143.565 208.511L143.225 209.727L142.624 209.688L141.669 207.791L141.93 205.79L141.342 205.62L139.197 205.41L138.909 208.406L137.274 208.275L136.489 208.89L135.966 208.157L133.611 208.55L127.83 205.764L125.056 201.539L121.983 199.132L120.936 200.558L119.929 200.348L118.006 202.167L117.404 201.957L114.71 203.645L114.867 204.796L112.46 204.613L111.714 204.037L111.688 203.174L110.668 203.213L110.197 205.097L111.453 207.268L111.126 207.503L105.2 208.681L102.689 207.556L100.883 209.727L99.6278 210.237L99.2615 211.728L97.8096 211.101L96.8416 212.173L92.2765 203.893L91.0992 199.354L89.8042 199.145L89.8566 196.96L89.0194 195.456L90.3144 191.637L92.2895 190.943L92.7343 188.707L92.2111 186.823L90.3798 186.208L88.7447 183.043L87.162 182.938L86.3117 181.708L85.5007 182.284L82.8061 180.767L83.0677 179.903L82.3744 178.164L77.6785 181.839L76.9329 181.355L75.5202 182.035L73.3358 180.283L73.5058 178.988L78.5157 176.385L79.549 171.95L82.3483 169.177L83.8656 169.4L84.7551 166.797L85.9978 167.15L87.3582 165.332L90.9292 166.522L96.0568 171.676L97.3517 172.16L99.2615 171.1L100.648 171.493L102.662 169.884L106.626 169.622L107.738 166.705L110.458 166.286L111.086 164.612L112.421 163.448L117.103 163.422L119.798 161.97L122.349 162.245L124.415 159.511L126.979 157.588L129.818 152.879L132.944 150.721L133.389 148.667L142.519 148.052L145.227 149.033L147.398 147.921L149.53 141.446L149.923 136.685L151.296 133.912L151.453 130.472L153.167 128.64L154.553 127.672L160.204 127.895L162.035 126.901L167.15 127.738L173.533 124.612L177.549 119.916L177.431 118.071L180.008 112.538L179.354 107.986L179.89 107.175L180.767 107.097L179.223 103.84L180.178 102.074V100.203L182.716 98.0449L182.022 96.2791V92.4726L184.128 89.8434L184.612 86.9788L185.397 86.2201L185.489 83.6955L184.128 83.0284L184.272 79.8106L189.675 74.5784L189.635 71.269L194.972 69.6732L200.859 69.163L205.62 67.3448L205.934 66.5992L209.348 64.9249Z" fill="#CCCCCC" stroke="white" stroke-width="0.5"/>
<path d="M368.539 1L369.886 2.90976L369.127 4.75413L370.226 6.31072L373.156 7.91965L374.961 8.03737L375.916 9.50239L377.525 9.99946L377.447 17.3377L380.547 23.5771L380.848 27.5536L382.522 29.5811L382.94 31.4647L384.824 33.6492L385.151 35.075L387.113 34.6171L389.232 36.6577L393.196 34.5517L392.764 37.7957L394.334 39.2869L391.704 45.0685L395.825 45.134L398.585 46.3766L399.54 46.2458L403.935 49.7383L405.635 48.6003L407.297 45.7095L408.408 44.8723L410.854 43.9829L414.112 44.7939L414.36 51.2033L415.877 53.8849L415.681 56.4617L414.792 58.6462L415.354 61.0007L416.623 62.6488L414.766 68.0904L415.08 68.8621L416.898 69.3331L418.572 73.061L414.255 75.3763L413.85 78.6726L410.737 81.9427L411.077 83.9833L409.978 86.4425L411.025 88.0121L412.372 88.3392L413.484 89.5949L414.923 89.5556L416.27 88.2084L417.97 89.7388L419.278 89.0586L420.743 90.1312L425.348 90.1443L426.159 92.8258L430.384 99.3269L429.887 100.897L430.253 101.603L429.023 104.625L429.861 104.925L432.83 103.696L433.222 105.226L435.446 105.069L437.617 108.496L438.389 108.091L438.585 106.587L439.88 109.111L441.424 108.797L444.877 109.399L446.63 108.313L448.474 109.438L448.291 112.355L446.394 117.457L446.63 121.015L445.217 124.612L445.23 128.64L440.953 130.511L438.533 129.687L438.101 130.838L442.876 134.252L444.38 137.849L446.277 139.105L445.597 140.871L447.703 146.862L450.07 147.058L450.62 147.594L447.624 150.197L443.334 151.034L442.771 152.46L440.273 149.87L436.95 151.741L426.342 151.257L420.102 152.12L418.624 151.545L417.826 150.433L414.739 150.315L411.731 152.212L410.135 152.264L407.754 153.716L405.766 151.361L399.514 153.651H395.537L391.456 150.341L389.52 149.622L385.923 147.019L384.89 145.658L381.959 144.56L379.919 144.494L378.074 143.409L376.099 144.769L372.057 144.233L367.296 146.783L365.138 147.333H356.321L349.69 154.985L346.969 160.884L337.917 162.323L337.642 161.525L339.748 159.746L339.657 156.829L338.833 154.776L336.164 153.546L331.364 154.893L328.787 157.392L326.942 156.711L325.203 157.666L323.764 157.104L317.328 158.111L314.568 157.588L313.666 158.006L311.939 157.902L310.801 156.738L310.016 156.698L307.596 157.771L306.563 161.525L304.797 163.762L303.319 163.919L302.429 163.383L301.828 164.023L302.926 168.863L301.749 170.982L301.919 172.866L302.586 174.109L305.791 176.882L305.176 181.63L303.044 183.344L301.906 185.476L298.191 185.96L295.039 185.109L293.142 186.548L291.834 186.47L290.369 185.07L287.962 184.717L288.054 183.082L287.125 183.003L286.981 181.041L285.935 180.793L283.371 182.14L281.631 184.521L279.486 185.502L278.91 186.679L278.636 183.527L277.341 183.147L276.582 180.806L272.239 176.241L272.37 171.872L270.63 171.597L269.506 170.263L268.681 170.407L268.459 168.759L267.02 167.738L265.686 167.908L264.156 166.077L261.095 164.481L261.5 158.412L260.82 157.562L262.651 153.86L260.428 150.707L261.84 148.353L261.853 146.98L262.638 147.228L263.724 144.874L263.318 143.605L260.624 140.936L257.445 141.669L251.48 139.811L248.681 140.91L246.379 140.989L245.293 139.576L245.555 138.176L243.75 138.765L242.219 141.119L241.814 142.898L238.962 143.579L237.026 145.358L230.198 144.73L228.354 142.715V141.224L229.178 141.381L231.663 139.929L233.259 139.759L234.737 137.405L234.803 135.992L237.733 134.095L241.958 133.467L242.847 132.826L245.372 129.792L245.803 128.065L247.386 127.162L247.596 123.735L246.941 122.1L247.923 120.53L247.491 119.34L247.962 118.176L245.908 114.919L241.526 113.428L242.756 111.557L245.045 110.079L246.157 107.672L244.273 105.88L243.92 102.244L239.669 100.792L239.538 98.6467L237.903 98.385L235.247 96.9069L230.8 92.6819L229.047 91.9363L228.642 88.954L226.261 87.2273L226.117 85.6707L225.215 84.3889L225.659 83.1593L225.319 81.6027L223.279 79.4444L223.409 77.1814L221.277 75.0231L218.557 69.9086L217.34 69.2415L216.254 67.6195L216.346 64.781L213.56 64.6371L210.368 65.4481L209.348 64.9249L214.881 63.2375L216.647 61.6417L218.269 58.5416L220.179 57.4951L219.511 56.3441L221.539 54.2511L221.84 53.1785L220.336 47.4885L221.251 46.7429L223.37 48.2995L224.953 48.6134L226.313 48.2341L227.255 46.5597L230.224 44.977L230.368 42.9103L231.232 41.1574L232.422 40.4249L232.435 39.2084L233.966 38.9861L234.397 37.5603L236.503 36.4222L236.856 34.8134L237.929 34.5386L240.048 32.4981L238.452 28.5608L238.531 27.292L239.917 26.481L240.113 25.2514L243.07 23.7341L247.072 23.3024L247.831 23.7472L247.87 25.8924L250.146 26.2848L251.847 25.7093L252.736 26.1148L253.94 24.9113L258.714 23.7733L260.153 25.343L263.096 25.0422L267.426 27.6583H269.362L273.26 23.9041L275.536 23.4071L276.687 22.1252L280.297 21.0918L283.201 21.6935L284.941 21.1834L285.804 21.9943L289.205 22.3606L295.209 21.3534L296.19 22.5961L298.361 23.6948L298.427 24.8067L299.434 24.5712L299.656 25.0422L298.231 28.9663L299.133 30.2875L298.518 31.02L297.969 35.1142L299.8 35.7159L300.729 38.7375L301.854 40.0979L301.331 42.1777L299.159 44.166L299.682 46.6775L300.65 47.8547L303.253 47.1222L304.915 47.894L308.394 47.7632L310.016 46.3243L309.781 45.6833L310.814 43.7866L313.352 44.1267L313.849 43.1457L316.177 43.4204L318.832 45.9842L320.494 46.2066L321.802 45.7487L322.822 44.4538L324.562 45.8141L328.015 43.8913L330.121 44.5715L331.154 43.512L330.422 42.5571L330.54 40.765L329.768 40.0325V39.0253L332.345 35.8206L334.176 36.2915L335.092 34.9441L335.484 33.0736L334.281 30.9284L336.02 28.2076L335.406 27.1351L336.439 26.2455L336.387 22.8708L339.918 19.6529L340.285 18.5411L341.854 18.5803L343.189 17.8478L345.124 18.3056L346.825 17.56L347.871 17.9655L348.094 19.012L353.967 17.6647L354.739 16.2651L354.49 14.0152L355.694 12.851L355.458 10.8758L359.539 9.35852L360.546 7.9327L360.703 5.91832L361.514 5.22505L365.426 4.20476L365.269 2.37345L365.883 1.20929L367.087 1.5494L368.539 1Z" fill="#CCCCCC" stroke="white" stroke-width="0.5"/>
</svg>
